<svg xmlns="http://www.w3.org/2000/svg" version="1.1" xmlns:xlink="http://www.w3.org/1999/xlink" xmlns:svgjs="http://svgjs.dev/svgjs" width="2000" height="752" viewBox="0 0 2000 752"><g transform="matrix(1,0,0,1,-1.2121212121212466,-0.7061135723511711)"><svg viewBox="0 0 396 149" data-background-color="#ffffff" preserveAspectRatio="xMidYMid meet" height="752" width="2000" xmlns="http://www.w3.org/2000/svg" xmlns:xlink="http://www.w3.org/1999/xlink"><g id="tight-bounds" transform="matrix(1,0,0,1,0.2400000000000091,0.1399081413302241)"><svg viewBox="0 0 395.52 148.72018371733955" height="148.72018371733955" width="395.52"><g><svg viewBox="0 0 657.4261916313146 247.2" height="148.72018371733955" width="395.52"><g><svg viewBox="0 0 370.25228951255536 247.2" height="247.2" width="370.25228951255536"><g id="textblocktransform"><svg viewBox="0 0 370.25228951255536 247.2" height="247.2" width="370.25228951255536" id="textblock"><g><svg viewBox="0 0 370.25228951255536 247.2" height="247.2" width="370.25228951255536"><g transform="matrix(1,0,0,1,0,0)"><svg width="370.25228951255536" viewBox="3.5 -33.85 50.7 33.85" height="247.2" data-palette-color="#4b91f1"><path d="M3.5 0L3.5-33.85 9.45-33.85 9.45 0 3.5 0ZM26.95-33.85Q26.15-30.1 25.18-27.48 24.2-24.85 23.05-23.03 21.9-21.2 20.53-19.93 19.15-18.65 17.6-17.6L17.6-17.6 29.9 0 23 0 10.1-18.3 10.1-18.65Q14.7-20.35 17.23-24.23 19.75-28.1 21.1-33.85L21.1-33.85 26.95-33.85ZM54.2 0L31.55 0 31.55-3.55 46.25-29.35Q45.25-29.25 44.2-29.23 43.15-29.2 41.95-29.2L41.95-29.2 32.4-29.2 31.6-33.85 53.6-33.85 53.6-30.3 39.2-4.55Q40.05-4.6 40.95-4.63 41.85-4.65 42.9-4.65L42.9-4.65 54.2-4.65 54.2 0Z" opacity="1" transform="matrix(1,0,0,1,0,0)" fill="#4b91f1" class="wordmark-text-0" data-fill-palette-color="primary" id="text-0"></path></svg></g></svg></g></svg></g></svg></g><g transform="matrix(1,0,0,1,428.61027671255533,9.192042540620392)"><svg viewBox="0 0 228.8159149187592 228.8159149187592" height="228.8159149187592" width="228.8159149187592"><g data-palette-color="#4b91f1"><rect width="62.54301674446085" height="228.8159149187592" fill="#4b91f1" stroke="transparent" data-fill-palette-color="accent" x="0" fill-opacity="1"></rect><rect width="62.54301674446085" height="228.8159149187592" fill="#4b91f1" stroke="transparent" data-fill-palette-color="accent" x="76.2719716395864" fill-opacity="0.75"></rect><rect width="62.54301674446085" height="228.8159149187592" fill="#4b91f1" stroke="transparent" data-fill-palette-color="accent" x="152.5439432791728" fill-opacity="0.5"></rect></g></svg></g></svg></g><defs></defs></svg><rect width="395.52" height="148.72018371733955" fill="none" stroke="none" visibility="hidden"></rect></g></svg></g></svg>